<svg width="800" height="680" viewBox="0 0 800 680" fill="none" xmlns="http://www.w3.org/2000/svg">
<path fill-rule="evenodd" clip-rule="evenodd" d="M314.419 528.862L359.116 560.906L102.762 675.823L800 536.597L625.414 399.235V433.834H555.801H516.022V528.862H314.419ZM122.652 391.379V253.838L0 303.448L122.652 391.379ZM262.258 197.37L740.331 4L495.103 197.37H262.258Z" fill="black"/>
<path d="M534.713 335.281C534.427 337.823 532.901 341.713 527.287 341.806C527.471 342.021 513.004 341.842 513.004 341.842L508.973 365.208L534.668 365.199C539.388 365.197 544.138 365.318 548.734 365.347L548.68 410.63L568.33 410.562L568.475 365.646C573.873 365.736 579.117 365.734 584.238 365.763L584.186 410.526L603.835 410.457L603.89 365.174C637.119 363.295 660.222 354.958 663.293 324.029C665.634 299.132 653.951 287.99 635.151 283.557C646.554 277.735 653.746 267.627 652.141 250.602C649.941 227.483 629.764 219.62 604.323 217.486L604.468 185.333L584.818 185.401L584.737 216.758C579.493 216.76 574.28 216.884 568.942 217.039L568.993 185.56L549.343 185.628L549.198 217.781C544.909 217.935 540.714 217.937 536.642 217.908L536.612 217.785L509.467 217.764L509.423 238.709C509.423 238.709 524.045 238.459 523.705 238.674C531.695 238.64 534.3 243.325 534.996 247.183L534.713 335.281ZM624.316 320.184C624.322 344.498 582.349 341.787 568.992 341.853L569.176 298.768C582.41 298.733 624.344 294.952 624.316 320.184ZM615.278 259.495C615.261 281.604 580.289 279.105 569.123 279.017L569.262 239.975C580.398 239.94 615.422 236.314 615.278 259.495Z" fill="black"/>
<path d="M206.354 218.564C217.706 218.564 227.414 220.506 235.479 224.389C243.545 228.123 249.743 233.575 254.075 240.744C258.556 247.764 260.796 256.278 260.796 266.285C260.796 276.292 258.556 284.88 254.075 292.049C249.743 299.069 243.545 304.521 235.479 308.404C227.414 312.138 217.706 314.005 206.354 314.005H175.213V366.431H144.295V218.564H206.354ZM201.649 289.585C210.91 289.585 217.855 287.643 222.485 283.76C227.115 279.727 229.43 273.902 229.43 266.285C229.43 258.518 227.115 252.693 222.485 248.81C217.855 244.926 210.91 242.985 201.649 242.985H175.213V289.585H201.649Z" fill="black"/>
<path d="M302.128 341.562H380.094V366.431H271.21V218.564H302.128V341.562Z" fill="black"/>
<path d="M387.843 366.431V218.564H498.743V243.433H418.76V280.175H481.716V303.924H418.76V341.562H501.88V366.431H387.843Z" fill="black"/>
<path d="M269.079 379.791V507.942H220.149L189.47 449.691L182.48 433.964H182.092L182.869 460.371V507.942H143.646V379.791H192.577L223.256 438.236L230.246 453.769H230.634L229.857 427.362V379.791H269.079Z" fill="black"/>
<path d="M287.141 507.942V379.791H393.546V412.994H332.382V428.915H381.701V459.594H332.382V474.739H395.876V507.942H287.141Z" fill="black"/>
<path d="M533.551 379.791V412.994H493.552V507.942H448.311V412.994H408.118V379.791H533.551Z" fill="black"/>
</svg>
